<mxfile host="app.diagrams.net" modified="2021-03-01T03:49:06.439Z" agent="5.0 (Windows NT 10.0; Win64; x64) AppleWebKit/537.36 (KHTML, like Gecko) Chrome/88.0.4324.190 Safari/537.36" etag="pFM48JGwqvY2PoJsYxJy" version="14.4.3" type="github">
  <diagram id="C5RBs43oDa-KdzZeNtuy" name="Page-1">
    <mxGraphModel dx="1038" dy="547" grid="1" gridSize="10" guides="1" tooltips="1" connect="1" arrows="1" fold="1" page="1" pageScale="1" pageWidth="827" pageHeight="1169" math="0" shadow="0">
      <root>
        <mxCell id="WIyWlLk6GJQsqaUBKTNV-0" />
        <mxCell id="WIyWlLk6GJQsqaUBKTNV-1" parent="WIyWlLk6GJQsqaUBKTNV-0" />
        <mxCell id="CpDxlk1r9AqGXiCLKIT_-0" value="// 灰度控制信息&#xa;gray_info" style="swimlane;fontStyle=1;align=center;verticalAlign=top;childLayout=stackLayout;horizontal=1;startSize=40;horizontalStack=0;resizeParent=1;resizeParentMax=0;resizeLast=0;collapsible=1;marginBottom=0;" vertex="1" parent="WIyWlLk6GJQsqaUBKTNV-1">
          <mxGeometry x="10" width="160" height="700" as="geometry" />
        </mxCell>
        <mxCell id="CpDxlk1r9AqGXiCLKIT_-1" value="id int &#xa;//版本号&#xa;version_id int &#xa;version_name string &#xa;&#xa;notice &#xa;&#xa;pic_name &#xa;&#xa;// 操作端&#xa;operate_platform &#xa;// 是否通知&#xa;notice&#xa;// 直播模式&#xa;live_mode&#xa;// 年级&#xa;grade []string &#xa;// 学科&#xa;subject []string &#xa;&#xa;//教师id&#xa;teacher_id int &#xa;// 场次id&#xa;session_id int &#xa;// 高级设置 定时发布&#xa;is_timed_release int&#xa;// 定时发布时间&#xa;timed_release_time  int64&#xa;&#xa;create_time int64&#xa;update_time int64&#xa;delete_time int64 &#xa;&#xa; " style="text;strokeColor=none;fillColor=none;align=left;verticalAlign=top;spacingLeft=4;spacingRight=4;overflow=hidden;rotatable=0;points=[[0,0.5],[1,0.5]];portConstraint=eastwest;" vertex="1" parent="CpDxlk1r9AqGXiCLKIT_-0">
          <mxGeometry y="40" width="160" height="520" as="geometry" />
        </mxCell>
        <mxCell id="CpDxlk1r9AqGXiCLKIT_-2" value="" style="line;strokeWidth=1;fillColor=none;align=left;verticalAlign=middle;spacingTop=-1;spacingLeft=3;spacingRight=3;rotatable=0;labelPosition=right;points=[];portConstraint=eastwest;" vertex="1" parent="CpDxlk1r9AqGXiCLKIT_-0">
          <mxGeometry y="560" width="160" height="8" as="geometry" />
        </mxCell>
        <mxCell id="CpDxlk1r9AqGXiCLKIT_-3" value="- CreateGrayInfo() &#xa;&#xa;- GetList()&#xa;- Get()&#xa;- Search() &#xa;" style="text;strokeColor=none;fillColor=none;align=left;verticalAlign=top;spacingLeft=4;spacingRight=4;overflow=hidden;rotatable=0;points=[[0,0.5],[1,0.5]];portConstraint=eastwest;" vertex="1" parent="CpDxlk1r9AqGXiCLKIT_-0">
          <mxGeometry y="568" width="160" height="132" as="geometry" />
        </mxCell>
      </root>
    </mxGraphModel>
  </diagram>
</mxfile>
